<mxfile host="app.diagrams.net" modified="2020-12-27T17:27:49.845Z" agent="5.0 (Macintosh; Intel Mac OS X 10_15_7) AppleWebKit/537.36 (KHTML, like Gecko) Chrome/87.0.4280.88 Safari/537.36" etag="5gVXipJcrgbT9a6Ev9Ac" version="14.1.2" type="github">
  <diagram id="f9AxAqMZ-e4Ttuud6Dco" name="Page-1">
    <mxGraphModel dx="946" dy="623" grid="1" gridSize="10" guides="1" tooltips="1" connect="1" arrows="1" fold="1" page="1" pageScale="1" pageWidth="827" pageHeight="1169" math="0" shadow="0">
      <root>
        <mxCell id="0" />
        <mxCell id="1" parent="0" />
        <mxCell id="AMVjsN71u4ruyLXpME6J-1" value="&lt;font style=&quot;font-size: 18px&quot;&gt;Source&lt;br&gt;&amp;nbsp;(.java ...)&lt;/font&gt;" style="rounded=1;whiteSpace=wrap;html=1;strokeWidth=4;" vertex="1" parent="1">
          <mxGeometry x="360" y="20" width="120" height="60" as="geometry" />
        </mxCell>
        <mxCell id="AMVjsN71u4ruyLXpME6J-2" value="&lt;font style=&quot;font-size: 18px&quot;&gt;Compiler&lt;br&gt;(javac ...)&lt;/font&gt;" style="rounded=1;whiteSpace=wrap;html=1;strokeWidth=4;" vertex="1" parent="1">
          <mxGeometry x="500" y="90" width="120" height="60" as="geometry" />
        </mxCell>
        <mxCell id="AMVjsN71u4ruyLXpME6J-5" value="&lt;font style=&quot;font-size: 18px&quot;&gt;ByteCode&lt;br&gt;(.class)&lt;/font&gt;" style="rounded=1;whiteSpace=wrap;html=1;strokeWidth=4;" vertex="1" parent="1">
          <mxGeometry x="360" y="160" width="120" height="60" as="geometry" />
        </mxCell>
        <mxCell id="AMVjsN71u4ruyLXpME6J-13" value="" style="endArrow=classic;html=1;strokeWidth=5;exitX=0.5;exitY=1;exitDx=0;exitDy=0;entryX=0.5;entryY=0;entryDx=0;entryDy=0;" edge="1" parent="1" source="AMVjsN71u4ruyLXpME6J-1" target="AMVjsN71u4ruyLXpME6J-5">
          <mxGeometry width="50" height="50" relative="1" as="geometry">
            <mxPoint x="450" y="330" as="sourcePoint" />
            <mxPoint x="500" y="280" as="targetPoint" />
          </mxGeometry>
        </mxCell>
        <mxCell id="AMVjsN71u4ruyLXpME6J-14" value="" style="endArrow=classic;html=1;strokeWidth=5;entryX=0;entryY=0.5;entryDx=0;entryDy=0;" edge="1" parent="1" target="AMVjsN71u4ruyLXpME6J-2">
          <mxGeometry width="50" height="50" relative="1" as="geometry">
            <mxPoint x="420" y="120" as="sourcePoint" />
            <mxPoint x="500" y="280" as="targetPoint" />
          </mxGeometry>
        </mxCell>
        <mxCell id="AMVjsN71u4ruyLXpME6J-16" value="" style="rounded=0;whiteSpace=wrap;html=1;strokeWidth=2;" vertex="1" parent="1">
          <mxGeometry x="120" y="230" width="640" height="240" as="geometry" />
        </mxCell>
        <mxCell id="AMVjsN71u4ruyLXpME6J-17" value="&lt;font style=&quot;font-size: 22px&quot;&gt;Class Loader&lt;/font&gt;" style="rounded=1;whiteSpace=wrap;html=1;strokeWidth=2;" vertex="1" parent="1">
          <mxGeometry x="230" y="270" width="160" height="60" as="geometry" />
        </mxCell>
        <mxCell id="AMVjsN71u4ruyLXpME6J-18" value="&lt;font style=&quot;font-size: 22px&quot;&gt;Excution Engine&lt;/font&gt;" style="rounded=1;whiteSpace=wrap;html=1;strokeWidth=2;" vertex="1" parent="1">
          <mxGeometry x="480" y="270" width="180" height="60" as="geometry" />
        </mxCell>
        <mxCell id="AMVjsN71u4ruyLXpME6J-20" value="&lt;font style=&quot;font-size: 22px&quot;&gt;Runtime Data Area&lt;/font&gt;" style="rounded=1;whiteSpace=wrap;html=1;strokeWidth=2;" vertex="1" parent="1">
          <mxGeometry x="220" y="360" width="440" height="60" as="geometry" />
        </mxCell>
        <mxCell id="AMVjsN71u4ruyLXpME6J-21" value="" style="endArrow=classic;startArrow=classic;html=1;strokeWidth=2;exitX=1;exitY=0.5;exitDx=0;exitDy=0;entryX=0;entryY=0.5;entryDx=0;entryDy=0;" edge="1" parent="1" source="AMVjsN71u4ruyLXpME6J-17" target="AMVjsN71u4ruyLXpME6J-18">
          <mxGeometry width="50" height="50" relative="1" as="geometry">
            <mxPoint x="390" y="280" as="sourcePoint" />
            <mxPoint x="440" y="230" as="targetPoint" />
          </mxGeometry>
        </mxCell>
        <mxCell id="AMVjsN71u4ruyLXpME6J-22" value="" style="endArrow=classic;startArrow=classic;html=1;strokeWidth=2;exitX=0.5;exitY=1;exitDx=0;exitDy=0;entryX=0.25;entryY=0;entryDx=0;entryDy=0;" edge="1" parent="1" source="AMVjsN71u4ruyLXpME6J-17" target="AMVjsN71u4ruyLXpME6J-20">
          <mxGeometry width="50" height="50" relative="1" as="geometry">
            <mxPoint x="390" y="280" as="sourcePoint" />
            <mxPoint x="311" y="361" as="targetPoint" />
          </mxGeometry>
        </mxCell>
        <mxCell id="AMVjsN71u4ruyLXpME6J-23" value="" style="endArrow=classic;startArrow=classic;html=1;strokeWidth=2;entryX=0.5;entryY=1;entryDx=0;entryDy=0;exitX=0.75;exitY=0;exitDx=0;exitDy=0;" edge="1" parent="1" source="AMVjsN71u4ruyLXpME6J-20" target="AMVjsN71u4ruyLXpME6J-18">
          <mxGeometry width="50" height="50" relative="1" as="geometry">
            <mxPoint x="390" y="280" as="sourcePoint" />
            <mxPoint x="440" y="230" as="targetPoint" />
          </mxGeometry>
        </mxCell>
        <mxCell id="AMVjsN71u4ruyLXpME6J-25" value="&lt;font style=&quot;font-size: 22px&quot;&gt;OS (windows linux unix mac ...)&lt;/font&gt;" style="rounded=0;whiteSpace=wrap;html=1;strokeWidth=2;" vertex="1" parent="1">
          <mxGeometry x="120" y="525" width="640" height="60" as="geometry" />
        </mxCell>
        <mxCell id="AMVjsN71u4ruyLXpME6J-26" value="&lt;font style=&quot;font-size: 22px&quot;&gt;Hardware (Cpu RAM Disk Network ...)&lt;/font&gt;" style="rounded=0;whiteSpace=wrap;html=1;strokeWidth=2;" vertex="1" parent="1">
          <mxGeometry x="120" y="650" width="640" height="60" as="geometry" />
        </mxCell>
        <mxCell id="AMVjsN71u4ruyLXpME6J-27" value="" style="endArrow=classic;startArrow=classic;html=1;strokeWidth=2;exitX=0.5;exitY=0;exitDx=0;exitDy=0;" edge="1" parent="1" source="AMVjsN71u4ruyLXpME6J-25">
          <mxGeometry width="50" height="50" relative="1" as="geometry">
            <mxPoint x="390" y="490" as="sourcePoint" />
            <mxPoint x="440" y="470" as="targetPoint" />
          </mxGeometry>
        </mxCell>
        <mxCell id="AMVjsN71u4ruyLXpME6J-28" value="" style="endArrow=classic;startArrow=classic;html=1;strokeWidth=2;exitX=0.5;exitY=0;exitDx=0;exitDy=0;" edge="1" parent="1" source="AMVjsN71u4ruyLXpME6J-26">
          <mxGeometry width="50" height="50" relative="1" as="geometry">
            <mxPoint x="390" y="490" as="sourcePoint" />
            <mxPoint x="440" y="590" as="targetPoint" />
          </mxGeometry>
        </mxCell>
        <mxCell id="AMVjsN71u4ruyLXpME6J-29" value="&lt;font style=&quot;font-size: 20px&quot; color=&quot;#0066cc&quot;&gt;JVM&lt;/font&gt;" style="text;html=1;strokeColor=none;fillColor=none;align=center;verticalAlign=middle;whiteSpace=wrap;rounded=0;" vertex="1" parent="1">
          <mxGeometry x="650" y="240" width="110" height="50" as="geometry" />
        </mxCell>
      </root>
    </mxGraphModel>
  </diagram>
</mxfile>
